<svg width="22" height="20" viewBox="0 0 22 20" fill="none" xmlns="http://www.w3.org/2000/svg">
<path d="M10.2594 1.37792L1.0903 17.9346C0.823667 18.4169 1.17917 19 1.74206 19H20.2579C20.8208 19 21.1763 18.4169 20.9097 17.9346L11.5629 1.37792C11.2814 0.874025 10.5408 0.874025 10.2594 1.37792Z" fill="white" stroke="black" stroke-width="0.5" stroke-linecap="round" stroke-linejoin="round"/>
<path d="M11.0016 16.8402C11.6151 16.8402 12.1125 16.3568 12.1125 15.7604C12.1125 15.1641 11.6151 14.6807 11.0016 14.6807C10.388 14.6807 9.89062 15.1641 9.89062 15.7604C9.89062 16.3568 10.388 16.8402 11.0016 16.8402Z" fill="black" stroke="black" stroke-linecap="round" stroke-linejoin="round"/>
<path d="M11.3719 13.2414H10.6313L9.89062 6.7627H12.1125L11.3719 13.2414Z" fill="black" stroke="black" stroke-linecap="round" stroke-linejoin="round"/>
</svg>
