<svg width="22" height="20" viewBox="0 0 22 20" fill="none" xmlns="http://www.w3.org/2000/svg">
<path d="M10.2594 1.37792L1.0903 17.9346C0.823667 18.4169 1.17917 19 1.74206 19H20.2579C20.8208 19 21.1763 18.4169 20.9097 17.9346L11.5629 1.37792C11.2814 0.874025 10.5408 0.874025 10.2594 1.37792Z" stroke="#CF2323" stroke-linecap="round" stroke-linejoin="round"/>
<path d="M11.0016 16.8393C11.6151 16.8393 12.1125 16.3558 12.1125 15.7595C12.1125 15.1631 11.6151 14.6797 11.0016 14.6797C10.388 14.6797 9.89062 15.1631 9.89062 15.7595C9.89062 16.3558 10.388 16.8393 11.0016 16.8393Z" fill="#CF2323" stroke="#CF2323" stroke-linecap="round" stroke-linejoin="round"/>
<path d="M11.3719 13.2443H10.6313L9.89062 6.76562H12.1125L11.3719 13.2443Z" fill="#CF2323" stroke="#CF2323" stroke-linecap="round" stroke-linejoin="round"/>
</svg>
