<svg width="13" height="15" viewBox="0 0 13 15" fill="none" xmlns="http://www.w3.org/2000/svg">
<path d="M4.49463 8.625C4.65869 8.625 4.82275 8.48828 4.82275 8.29688V7.20312C4.82275 7.03906 4.65869 6.875 4.49463 6.875H3.40088C3.20947 6.875 3.07275 7.03906 3.07275 7.20312V8.29688C3.07275 8.48828 3.20947 8.625 3.40088 8.625H4.49463ZM7.44775 8.29688V7.20312C7.44775 7.03906 7.28369 6.875 7.11963 6.875H6.02588C5.83447 6.875 5.69775 7.03906 5.69775 7.20312V8.29688C5.69775 8.48828 5.83447 8.625 6.02588 8.625H7.11963C7.28369 8.625 7.44775 8.48828 7.44775 8.29688ZM10.0728 8.29688V7.20312C10.0728 7.03906 9.90869 6.875 9.74463 6.875H8.65088C8.45947 6.875 8.32275 7.03906 8.32275 7.20312V8.29688C8.32275 8.48828 8.45947 8.625 8.65088 8.625H9.74463C9.90869 8.625 10.0728 8.48828 10.0728 8.29688ZM7.44775 10.9219V9.82812C7.44775 9.66406 7.28369 9.5 7.11963 9.5H6.02588C5.83447 9.5 5.69775 9.66406 5.69775 9.82812V10.9219C5.69775 11.1133 5.83447 11.25 6.02588 11.25H7.11963C7.28369 11.25 7.44775 11.1133 7.44775 10.9219ZM4.82275 10.9219V9.82812C4.82275 9.66406 4.65869 9.5 4.49463 9.5H3.40088C3.20947 9.5 3.07275 9.66406 3.07275 9.82812V10.9219C3.07275 11.1133 3.20947 11.25 3.40088 11.25H4.49463C4.65869 11.25 4.82275 11.1133 4.82275 10.9219ZM10.0728 10.9219V9.82812C10.0728 9.66406 9.90869 9.5 9.74463 9.5H8.65088C8.45947 9.5 8.32275 9.66406 8.32275 9.82812V10.9219C8.32275 11.1133 8.45947 11.25 8.65088 11.25H9.74463C9.90869 11.25 10.0728 11.1133 10.0728 10.9219ZM12.6978 3.8125C12.6978 3.10156 12.0962 2.5 11.3853 2.5H10.0728V1.07812C10.0728 0.914062 9.90869 0.75 9.74463 0.75H8.65088C8.45947 0.75 8.32275 0.914062 8.32275 1.07812V2.5H4.82275V1.07812C4.82275 0.914062 4.65869 0.75 4.49463 0.75H3.40088C3.20947 0.75 3.07275 0.914062 3.07275 1.07812V2.5H1.76025C1.02197 2.5 0.447754 3.10156 0.447754 3.8125V13.4375C0.447754 14.1758 1.02197 14.75 1.76025 14.75H11.3853C12.0962 14.75 12.6978 14.1758 12.6978 13.4375V3.8125ZM11.3853 13.2734C11.3853 13.3828 11.3032 13.4375 11.2212 13.4375H1.92432C1.81494 13.4375 1.76025 13.3828 1.76025 13.2734V5.125H11.3853V13.2734Z" fill="black"/>
</svg>
