<svg width="7" height="5" viewBox="0 0 7 5" fill="none" xmlns="http://www.w3.org/2000/svg">
<path d="M3.7882 1.03427C3.75609 0.997998 3.71312 0.968343 3.663 0.947857C3.61287 0.92737 3.5571 0.916666 3.50047 0.916666C3.44385 0.916666 3.38808 0.92737 3.33795 0.947857C3.28783 0.968343 3.24486 0.997998 3.21275 1.03427L0.0625048 4.57291C0.0260406 4.61373 0.00465777 4.66153 0.000678088 4.71114C-0.00330112 4.76074 0.0102754 4.81024 0.0399332 4.85426C0.0695911 4.89829 0.114196 4.93515 0.168901 4.96084C0.223606 4.98653 0.28632 5.00008 0.350227 5L6.65072 5C6.71448 4.99979 6.77696 4.98608 6.83145 4.96032C6.88593 4.93457 6.93036 4.89775 6.95995 4.85383C6.98954 4.80991 7.00317 4.76054 6.99938 4.71105C6.99559 4.66155 6.97452 4.61379 6.93844 4.57291L3.7882 1.03427Z" fill="black"/>
</svg>
