<svg width="19" height="19" viewBox="0 0 19 19" fill="none" xmlns="http://www.w3.org/2000/svg">
<path fill-rule="evenodd" clip-rule="evenodd" d="M18.3463 0.351472C17.8777 -0.117157 17.1179 -0.117157 16.6492 0.351472L9.34888 7.65183L2.04853 0.351472L1.95109 0.263994C1.47989 -0.115074 0.788859 -0.0859153 0.351472 0.351472C-0.117157 0.820101 -0.117157 1.5799 0.351472 2.04853L7.65183 9.34888L0.351472 16.6492L0.263994 16.7467C-0.115074 17.2179 -0.0859153 17.9089 0.351472 18.3463C0.820101 18.8149 1.5799 18.8149 2.04853 18.3463L9.34888 11.0459L16.6492 18.3463L16.7467 18.4338C17.2179 18.8128 17.9089 18.7837 18.3463 18.3463C18.8149 17.8777 18.8149 17.1179 18.3463 16.6492L11.0459 9.34888L18.3463 2.04853L18.4338 1.95109C18.8128 1.47989 18.7837 0.788859 18.3463 0.351472Z" fill="black"/>
</svg>
