<svg width="18" height="19" viewBox="0 0 18 19" fill="none" xmlns="http://www.w3.org/2000/svg">
<path fill-rule="evenodd" clip-rule="evenodd" d="M16.8448 1.59723C16.6084 1.2289 16.1429 1 15.6302 1H2.36977C1.85711 1 1.39161 1.2289 1.15524 1.59723C0.918822 1.96559 0.954553 2.40534 1.24798 2.74474L6.61318 8.957V16.8886C6.61318 17.3665 6.97264 17.7775 7.52906 17.9356C7.68168 17.9791 7.83727 18 7.99047 18C8.39572 18 8.78401 17.8526 9.05127 17.5818L11.261 15.343C11.3425 15.2604 11.3868 15.1579 11.3868 15.0521V8.95703L16.7518 2.74491C17.0455 2.40534 17.0812 1.96559 16.8448 1.59723Z" stroke="black" stroke-width="1.4" stroke-linecap="round"/>
</svg>
