<svg width="27" height="26" viewBox="0 0 27 26" fill="none" xmlns="http://www.w3.org/2000/svg">
<path d="M0.697754 13C0.697754 5.8203 6.51805 0 13.6978 0V0C20.8775 0 26.6978 5.8203 26.6978 13V13C26.6978 20.1797 20.8775 26 13.6978 26V26C6.51805 26 0.697754 20.1797 0.697754 13V13Z" fill="white"/>
<path d="M0.697754 13C0.697754 5.8203 6.51805 0 13.6978 0V0C20.8775 0 26.6978 5.8203 26.6978 13V13C26.6978 20.1797 20.8775 26 13.6978 26V26C6.51805 26 0.697754 20.1797 0.697754 13V13Z" fill="#FF9D4B" fill-opacity="0.4"/>
<g clip-path="url(#clip0_195_68335)">
<path d="M13.6976 5C14.7482 5 15.7885 5.20693 16.7591 5.60896C17.7297 6.011 18.6116 6.60028 19.3545 7.34315C20.0973 8.08601 20.6866 8.96793 21.0886 9.93853C21.4907 10.9091 21.6976 11.9494 21.6976 13C21.6976 15.1217 20.8547 17.1566 19.3545 18.6569C17.8542 20.1571 15.8193 21 13.6976 21C12.647 21 11.6067 20.7931 10.6361 20.391C9.66553 19.989 8.78362 19.3997 8.04075 18.6569C6.54046 17.1566 5.6976 15.1217 5.6976 13C5.6976 10.8783 6.54046 8.84344 8.04075 7.34315C9.54104 5.84285 11.5759 5 13.6976 5ZM13.6976 6.6C12.0002 6.6 10.3724 7.27428 9.17212 8.47452C7.97189 9.67475 7.2976 11.3026 7.2976 13C7.2976 14.6974 7.97189 16.3253 9.17212 17.5255C10.3724 18.7257 12.0002 19.4 13.6976 19.4C15.395 19.4 17.0229 18.7257 18.2231 17.5255C19.4233 16.3253 20.0976 14.6974 20.0976 13C20.0976 11.3026 19.4233 9.67475 18.2231 8.47452C17.0229 7.27428 15.395 6.6 13.6976 6.6ZM13.6976 11.8C14.0159 11.8 14.3211 11.9264 14.5461 12.1515C14.7712 12.3765 14.8976 12.6817 14.8976 13C14.8976 13.3183 14.7712 13.6235 14.5461 13.8485C14.3211 14.0736 14.0159 14.2 13.6976 14.2C13.3793 14.2 13.0741 14.0736 12.8491 13.8485C12.624 13.6235 12.4976 13.3183 12.4976 13C12.4976 12.6817 12.624 12.3765 12.8491 12.1515C13.0741 11.9264 13.3793 11.8 13.6976 11.8ZM10.0976 11.8C10.4159 11.8 10.7211 11.9264 10.9461 12.1515C11.1712 12.3765 11.2976 12.6817 11.2976 13C11.2976 13.3183 11.1712 13.6235 10.9461 13.8485C10.7211 14.0736 10.4159 14.2 10.0976 14.2C9.77934 14.2 9.47412 14.0736 9.24907 13.8485C9.02403 13.6235 8.8976 13.3183 8.8976 13C8.8976 12.6817 9.02403 12.3765 9.24907 12.1515C9.47412 11.9264 9.77934 11.8 10.0976 11.8ZM17.2976 11.8C17.6159 11.8 17.9211 11.9264 18.1461 12.1515C18.3712 12.3765 18.4976 12.6817 18.4976 13C18.4976 13.3183 18.3712 13.6235 18.1461 13.8485C17.9211 14.0736 17.6159 14.2 17.2976 14.2C16.9793 14.2 16.6741 14.0736 16.4491 13.8485C16.224 13.6235 16.0976 13.3183 16.0976 13C16.0976 12.6817 16.224 12.3765 16.4491 12.1515C16.6741 11.9264 16.9793 11.8 17.2976 11.8Z" fill="#7F7F7F"/>
</g>
<defs>
<clipPath id="clip0_195_68335">
<rect width="16" height="16" fill="white" transform="translate(5.69775 5)"/>
</clipPath>
</defs>
</svg>
