<svg width="27" height="26" viewBox="0 0 27 26" fill="none" xmlns="http://www.w3.org/2000/svg">
<path d="M0.697754 13C0.697754 5.8203 6.51805 0 13.6978 0C20.8775 0 26.6978 5.8203 26.6978 13C26.6978 20.1797 20.8775 26 13.6978 26C6.51805 26 0.697754 20.1797 0.697754 13Z" fill="#FAEFE4"/>
<g clip-path="url(#clip0_125_58092)">
<g clip-path="url(#clip1_125_58092)">
<path d="M11.3644 9.00016H10.1644C11.1644 8.1335 12.3644 7.66683 13.6978 7.66683C13.8978 7.66683 14.0978 7.66683 14.2978 7.7335C14.6311 7.80016 14.9644 7.5335 15.0311 7.1335C15.0978 6.80016 14.8311 6.46683 14.4311 6.40016C14.1644 6.3335 13.9644 6.3335 13.6978 6.3335C12.0978 6.3335 10.5644 6.9335 9.36443 7.9335V7.00016C9.36443 6.60016 9.09776 6.3335 8.69776 6.3335C8.29776 6.3335 8.0311 6.60016 8.0311 7.00016V9.66683C8.0311 10.0668 8.29776 10.3335 8.69776 10.3335H11.3644C11.7644 10.3335 12.0311 10.0668 12.0311 9.66683C12.0311 9.26683 11.7644 9.00016 11.3644 9.00016ZM10.3644 14.6668C9.96443 14.6668 9.69776 14.9335 9.69776 15.3335V16.5335C8.8311 15.5335 8.36443 14.3335 8.36443 13.0002C8.36443 12.8002 8.36443 12.6002 8.4311 12.4002C8.49776 12.0668 8.2311 11.7335 7.8311 11.6668C7.49776 11.6002 7.16443 11.8668 7.09776 12.2668C7.0311 12.5335 7.0311 12.7335 7.0311 13.0002C7.0311 14.6002 7.6311 16.1335 8.6311 17.3335H7.69776C7.29776 17.3335 7.0311 17.6002 7.0311 18.0002C7.0311 18.4002 7.29776 18.6668 7.69776 18.6668H10.3644C10.5644 18.6668 10.7644 18.5335 10.8978 18.4002C10.8978 18.3335 10.9644 18.2668 10.9644 18.2002V15.3335C11.0311 14.9335 10.7644 14.6668 10.3644 14.6668ZM19.6978 8.66683C20.0978 8.66683 20.3644 8.40016 20.3644 8.00016C20.3644 7.60016 20.0978 7.3335 19.6978 7.3335H16.8978C16.8311 7.3335 16.7644 7.40016 16.6978 7.40016C16.6311 7.46683 16.5644 7.46683 16.5644 7.5335C16.5644 7.60016 16.4978 7.66683 16.4978 7.66683V10.5335C16.4978 10.9335 16.7644 11.2002 17.1644 11.2002C17.5644 11.2002 17.8311 10.9335 17.8311 10.5335V9.46683C18.6978 10.4002 19.1644 11.6668 19.1644 13.0002C19.1644 13.2002 19.1644 13.4002 19.0978 13.6002C19.0311 13.9335 19.2978 14.2668 19.6978 14.3335H19.7644C20.0978 14.3335 20.3644 14.0668 20.4311 13.7335C20.4311 13.4668 20.4978 13.2668 20.4978 13.0002C20.4978 11.4002 19.8978 9.86683 18.8978 8.66683H19.6978ZM19.2311 16.0002L19.0311 15.8002C18.9644 15.7335 18.8978 15.7335 18.8311 15.7335H16.0311C15.6311 15.7335 15.3644 16.0002 15.3644 16.4002C15.3644 16.8002 15.6311 17.0668 16.0311 17.0668H17.2311C16.2978 17.9335 15.0311 18.4002 13.6978 18.4002C13.4978 18.4002 13.2978 18.4002 13.0978 18.3335C12.7644 18.2668 12.4311 18.5335 12.3644 18.9335C12.2978 19.3335 12.5644 19.6002 12.9644 19.6668C13.2311 19.6668 13.4311 19.7335 13.6978 19.7335C15.2978 19.7335 16.8311 19.1335 18.0311 18.1335V19.0002C18.0311 19.4002 18.2978 19.6668 18.6978 19.6668C19.0978 19.6668 19.3644 19.4002 19.3644 19.0002V16.3335C19.3644 16.2002 19.2978 16.0668 19.2311 16.0002Z" fill="#7F7F7F"/>
</g>
</g>
<defs>
<clipPath id="clip0_125_58092">
<rect width="16" height="16" fill="white" transform="translate(5.69775 5)"/>
</clipPath>
<clipPath id="clip1_125_58092">
<rect width="16" height="16" fill="white" transform="translate(5.69775 5)"/>
</clipPath>
</defs>
</svg>
