<svg width="17" height="16" viewBox="0 0 17 16" fill="none" xmlns="http://www.w3.org/2000/svg">
<path d="M8.69757 0C9.74815 0 10.7884 0.206926 11.759 0.608964C12.7296 1.011 13.6116 1.60028 14.3544 2.34315C15.0973 3.08601 15.6866 3.96793 16.0886 4.93853C16.4906 5.90914 16.6976 6.94943 16.6976 8C16.6976 10.1217 15.8547 12.1566 14.3544 13.6569C12.8541 15.1571 10.8193 16 8.69757 16C7.647 16 6.60671 15.7931 5.6361 15.391C4.6655 14.989 3.78359 14.3997 3.04072 13.6569C1.54043 12.1566 0.697571 10.1217 0.697571 8C0.697571 5.87827 1.54043 3.84344 3.04072 2.34315C4.54101 0.842855 6.57584 0 8.69757 0M8.69757 1.6C7.00019 1.6 5.37232 2.27428 4.17209 3.47452C2.97185 4.67475 2.29757 6.30261 2.29757 8C2.29757 9.69739 2.97185 11.3253 4.17209 12.5255C5.37232 13.7257 7.00019 14.4 8.69757 14.4C10.395 14.4 12.0228 13.7257 13.2231 12.5255C14.4233 11.3253 15.0976 9.69739 15.0976 8C15.0976 6.30261 14.4233 4.67475 13.2231 3.47452C12.0228 2.27428 10.395 1.6 8.69757 1.6M8.69757 6.8C9.01583 6.8 9.32106 6.92643 9.5461 7.15147C9.77114 7.37652 9.89757 7.68174 9.89757 8C9.89757 8.31826 9.77114 8.62348 9.5461 8.84853C9.32106 9.07357 9.01583 9.2 8.69757 9.2C8.37931 9.2 8.07409 9.07357 7.84904 8.84853C7.624 8.62348 7.49757 8.31826 7.49757 8C7.49757 7.68174 7.624 7.37652 7.84904 7.15147C8.07409 6.92643 8.37931 6.8 8.69757 6.8ZM5.09757 6.8C5.41583 6.8 5.72106 6.92643 5.9461 7.15147C6.17114 7.37652 6.29757 7.68174 6.29757 8C6.29757 8.31826 6.17114 8.62348 5.9461 8.84853C5.72106 9.07357 5.41583 9.2 5.09757 9.2C4.77931 9.2 4.47409 9.07357 4.24904 8.84853C4.024 8.62348 3.89757 8.31826 3.89757 8C3.89757 7.68174 4.024 7.37652 4.24904 7.15147C4.47409 6.92643 4.77931 6.8 5.09757 6.8M12.2976 6.8C12.6158 6.8 12.9211 6.92643 13.1461 7.15147C13.3711 7.37652 13.4976 7.68174 13.4976 8C13.4976 8.31826 13.3711 8.62348 13.1461 8.84853C12.9211 9.07357 12.6158 9.2 12.2976 9.2C11.9793 9.2 11.6741 9.07357 11.449 8.84853C11.224 8.62348 11.0976 8.31826 11.0976 8C11.0976 7.68174 11.224 7.37652 11.449 7.15147C11.6741 6.92643 11.9793 6.8 12.2976 6.8Z" fill="#7F7F7F"/>
</svg>
