<svg width="27" height="25" viewBox="0 0 27 25" fill="none" xmlns="http://www.w3.org/2000/svg">
<path d="M6.83338 19.1692C4.43427 17.4658 2.53578 15.25 1.463 13.8508C1.16302 13.4646 1.00018 12.9895 1.00018 12.5004C1.00018 12.0114 1.16302 11.5363 1.463 11.1501C3.4044 8.6157 8.0622 3.39746 13.5002 3.39746C15.9396 3.39746 18.2204 4.44683 20.1709 5.83429" stroke="#444344" stroke-width="2" stroke-linecap="round" stroke-linejoin="round"/>
<path d="M16.27 9.75223C15.9089 9.38511 15.4787 9.09311 15.0041 8.89309C14.5296 8.69306 14.0202 8.58897 13.5052 8.58681C12.9903 8.58465 12.48 8.68447 12.0038 8.88052C11.5276 9.07656 11.095 9.36494 10.7308 9.72903C10.3666 10.0931 10.0781 10.5257 9.88198 11.0018C9.68583 11.478 9.58588 11.9882 9.58792 12.5032C9.58996 13.0182 9.69393 13.5276 9.89384 14.0022C10.0938 14.4768 10.3856 14.9071 10.7527 15.2683M3.09763 22.9025L23.903 2.09717M10.8996 21.2173C11.7438 21.4686 12.6195 21.5982 13.5003 21.6022C18.9383 21.6022 23.5961 16.3839 25.5375 13.8496C25.8374 13.463 26.0001 12.9876 25.9998 12.4983C25.9996 12.009 25.8365 11.5338 25.5362 11.1475C24.8539 10.2574 24.1219 9.4065 23.3438 8.59884" stroke="#444344" stroke-width="2" stroke-linecap="round" stroke-linejoin="round"/>
</svg>
