<svg width="17" height="16" viewBox="0 0 17 16" fill="none" xmlns="http://www.w3.org/2000/svg">
<g clip-path="url(#clip0_125_58093)">
<g clip-path="url(#clip1_125_58093)">
<path d="M6.3644 4.00016H5.1644C6.1644 3.1335 7.3644 2.66683 8.69773 2.66683C8.89773 2.66683 9.09773 2.66683 9.29773 2.7335C9.63107 2.80016 9.9644 2.5335 10.0311 2.1335C10.0977 1.80016 9.83107 1.46683 9.43107 1.40016C9.1644 1.3335 8.9644 1.3335 8.69773 1.3335C7.09773 1.3335 5.5644 1.9335 4.3644 2.9335V2.00016C4.3644 1.60016 4.09773 1.3335 3.69773 1.3335C3.29773 1.3335 3.03107 1.60016 3.03107 2.00016V4.66683C3.03107 5.06683 3.29773 5.3335 3.69773 5.3335H6.3644C6.7644 5.3335 7.03107 5.06683 7.03107 4.66683C7.03107 4.26683 6.7644 4.00016 6.3644 4.00016ZM5.3644 9.66683C4.9644 9.66683 4.69773 9.9335 4.69773 10.3335V11.5335C3.83107 10.5335 3.3644 9.3335 3.3644 8.00016C3.3644 7.80016 3.3644 7.60016 3.43107 7.40016C3.49773 7.06683 3.23107 6.7335 2.83107 6.66683C2.49773 6.60016 2.1644 6.86683 2.09773 7.26683C2.03107 7.5335 2.03107 7.7335 2.03107 8.00016C2.03107 9.60016 2.63107 11.1335 3.63107 12.3335H2.69773C2.29773 12.3335 2.03107 12.6002 2.03107 13.0002C2.03107 13.4002 2.29773 13.6668 2.69773 13.6668H5.3644C5.5644 13.6668 5.7644 13.5335 5.89773 13.4002C5.89773 13.3335 5.9644 13.2668 5.9644 13.2002V10.3335C6.03107 9.9335 5.7644 9.66683 5.3644 9.66683V9.66683ZM14.6977 3.66683C15.0977 3.66683 15.3644 3.40016 15.3644 3.00016C15.3644 2.60016 15.0977 2.3335 14.6977 2.3335H11.8977C11.8311 2.3335 11.7644 2.40016 11.6977 2.40016C11.6311 2.46683 11.5644 2.46683 11.5644 2.5335C11.5644 2.60016 11.4977 2.66683 11.4977 2.66683V5.5335C11.4977 5.9335 11.7644 6.20016 12.1644 6.20016C12.5644 6.20016 12.8311 5.9335 12.8311 5.5335V4.46683C13.6977 5.40016 14.1644 6.66683 14.1644 8.00016C14.1644 8.20016 14.1644 8.40016 14.0977 8.60016C14.0311 8.9335 14.2977 9.26683 14.6977 9.3335H14.7644C15.0977 9.3335 15.3644 9.06683 15.4311 8.7335C15.4311 8.46683 15.4977 8.26683 15.4977 8.00016C15.4977 6.40016 14.8977 4.86683 13.8977 3.66683H14.6977ZM14.2311 11.0002L14.0311 10.8002C13.9644 10.7335 13.8977 10.7335 13.8311 10.7335H11.0311C10.6311 10.7335 10.3644 11.0002 10.3644 11.4002C10.3644 11.8002 10.6311 12.0668 11.0311 12.0668H12.2311C11.2977 12.9335 10.0311 13.4002 8.69773 13.4002C8.49773 13.4002 8.29773 13.4002 8.09773 13.3335C7.7644 13.2668 7.43107 13.5335 7.3644 13.9335C7.29773 14.3335 7.5644 14.6002 7.9644 14.6668C8.23107 14.6668 8.43107 14.7335 8.69773 14.7335C10.2977 14.7335 11.8311 14.1335 13.0311 13.1335V14.0002C13.0311 14.4002 13.2977 14.6668 13.6977 14.6668C14.0977 14.6668 14.3644 14.4002 14.3644 14.0002V11.3335C14.3644 11.2002 14.2977 11.0668 14.2311 11.0002Z" fill="#7F7F7F"/>
</g>
</g>
<defs>
<clipPath id="clip0_125_58093">
<rect width="16" height="16" fill="white" transform="translate(0.697754)"/>
</clipPath>
<clipPath id="clip1_125_58093">
<rect width="16" height="16" fill="white" transform="translate(0.697754)"/>
</clipPath>
</defs>
</svg>
