<svg width="16" height="16" viewBox="0 0 16 16" fill="none" xmlns="http://www.w3.org/2000/svg">
<path fill-rule="evenodd" clip-rule="evenodd" d="M6.45238 11.5828C7.86172 11.5828 9.14012 11.0196 10.0746 10.1048C10.0759 10.1048 10.0763 10.1006 10.0776 10.1006C10.0797 10.1006 10.0827 10.0963 10.0848 10.0963C11.0371 9.1604 11.6293 7.86024 11.6293 6.4288C11.6293 3.58285 9.30678 1.27051 6.45238 1.27051C3.59798 1.27051 1.27543 3.58285 1.27543 6.4288C1.27543 9.27051 3.59798 11.5828 6.45238 11.5828ZM6.45238 0C10.01 0 12.9048 2.88407 12.9048 6.4288C12.9048 7.98729 12.3431 9.41874 11.4125 10.5326L15.8132 14.9158C16.0623 15.1657 16.0623 15.5638 15.8132 15.8137C15.6886 15.9365 15.5253 16 15.3621 16C15.1988 16 15.036 15.9365 14.9114 15.8137L10.5031 11.4219C9.39478 12.3155 7.98586 12.8534 6.45238 12.8534C2.89437 12.8534 0 9.9693 0 6.4288C0 2.88407 2.89437 0 6.45238 0Z" fill="#424242"/>
</svg>
