<svg width="27" height="21" viewBox="0 0 27 21" fill="none" xmlns="http://www.w3.org/2000/svg">
<path d="M25.5377 8.7528C26.1541 9.55903 26.1541 10.6474 25.5377 11.4524C23.5963 13.9868 18.9383 19.2052 13.5002 19.2052C8.06205 19.2052 3.40413 13.9868 1.46268 11.4524C1.16279 11.0663 1 10.5914 1 10.1026C1 9.61375 1.16279 9.13884 1.46268 8.7528C3.40413 6.21838 8.06205 1 13.5002 1C18.9383 1 23.5963 6.21838 25.5377 8.7528V8.7528Z" stroke="#444344" stroke-width="2" stroke-linecap="round" stroke-linejoin="round"/>
<path d="M13.5008 14.0039C15.6553 14.0039 17.4019 12.2573 17.4019 10.1028C17.4019 7.94825 15.6553 6.20166 13.5008 6.20166C11.3463 6.20166 9.59971 7.94825 9.59971 10.1028C9.59971 12.2573 11.3463 14.0039 13.5008 14.0039Z" stroke="#444344" stroke-width="2" stroke-linecap="round" stroke-linejoin="round"/>
</svg>
